<svg width="60" height="60" viewBox="0 0 60 60" fill="none" xmlns="http://www.w3.org/2000/svg">
<path d="M15 21.25C15 16.9402 16.712 12.807 19.7595 9.75951C22.807 6.71205 26.9402 5 31.25 5C35.5598 5 39.693 6.71205 42.7405 9.75951C45.7879 12.807 47.5 16.9402 47.5 21.25C47.5 36.25 32.5 36.25 32.5 46.25C32.5 47.3991 32.2737 48.5369 31.8339 49.5985C31.3942 50.6601 30.7497 51.6247 29.9372 52.4372C29.1247 53.2497 28.1601 53.8942 27.0985 54.3339C26.0369 54.7737 24.8991 55 23.75 55C22.6009 55 21.4631 54.7737 20.4015 54.3339C19.3399 53.8942 18.3753 53.2497 17.5628 52.4372C16.7503 51.6247 16.1058 50.6601 15.6661 49.5985C15.2263 48.5369 15 47.3991 15 46.25" stroke="white" stroke-width="2" stroke-linecap="round" stroke-linejoin="round"/>
<path d="M37.5 21.25C37.5 19.5924 36.8415 18.0027 35.6694 16.8306C34.4973 15.6585 32.9076 15 31.25 15C29.5924 15 28.0027 15.6585 26.8306 16.8306C25.6585 18.0027 25 19.5924 25 21.25V23.75C26.3261 23.75 27.5979 24.2768 28.5355 25.2145C29.4732 26.1521 30 27.4239 30 28.75C30 30.0761 29.4732 31.3479 28.5355 32.2855C27.5979 33.2232 26.3261 33.75 25 33.75" stroke="white" stroke-width="2" stroke-linecap="round" stroke-linejoin="round"/>
</svg>
