<svg width="60" height="60" viewBox="0 0 60 60" fill="none" xmlns="http://www.w3.org/2000/svg">
<path d="M28.75 40C33.5825 40 37.5 36.0825 37.5 31.25C37.5 26.4175 33.5825 22.5 28.75 22.5C23.9175 22.5 20 26.4175 20 31.25C20 36.0825 23.9175 40 28.75 40Z" stroke="white" stroke-width="2" stroke-linecap="round" stroke-linejoin="round"/>
<path d="M7.5 20C7.5 11.25 13.75 5 23.75 5C36.25 5 35.825 12.5 42.5 17.5C49.175 22.5 55 22.5 55 32.5C55 43.75 48.75 48.75 37.5 48.75C31.25 48.75 31.25 55 22.5 55C13.75 55 5 50 5 41.25C5 33.75 8.75 33.75 8.75 28.75C8.75 25 7.5 22.5 7.5 20Z" stroke="white" stroke-width="2" stroke-linecap="round" stroke-linejoin="round"/>
</svg>
